<?xml version="1.0" encoding="utf-8"?>
<!-- Generator: Adobe Illustrator 18.1.1, SVG Export Plug-In . SVG Version: 6.00 Build 0)  -->
<svg version="1.1" id="Capa_1" xmlns="http://www.w3.org/2000/svg" xmlns:xlink="http://www.w3.org/1999/xlink" x="0px" y="0px"
	 viewBox="0 0 200 150" enable-background="new 0 0 200 150" xml:space="preserve">
<path fill="#D32F2F" d="M82.9,17.2c16.9-5.2,33.9-5.6,50.9-0.4c9,2.7,18.1,5.3,27.2,7.9c10.7,3.1,21.5,5.5,32.7,5.1
	c1.2,0,2.4-0.1,3.6-0.2V18.1c-4.6,0.5-9.3,0.4-13.9-0.6c-11.4-2.4-22.8-5.4-34-8.5c-11.3-3.1-22.5-6.6-34.2-7.4
	c-14-1-27.5,1.8-40.7,5.9C61.5,11.5,49,17,35.8,19.8c-11.2,2.4-22.7,6.1-33.1,6.7v11.4c17.4-1.3,34.6-6.2,39.7-7.8
	C56,25.9,69.4,21.4,82.9,17.2z"/>
<path fill="#D32F2F" d="M186.1,61.4c4.9-1,7.2-1.7,11.1-1.3V47.4c-5.5-0.4-10.9-0.5-15.9-1.7c-12.4-3.1-24.7-6.6-36.8-10.9
	c-21.9-7.8-43.7-8.3-66-1.6C61.3,38.5,30.3,52.3,2.7,51.9v12.3c12.9,0,41.6,4.8,50.1,8.3c24.1,9.8,49.1,13.5,75,10.6
	c1.4-0.2,2.9-0.3,4.9-0.5c-0.8,0.9-1.1,1.4-1.5,1.7c-10.8,9.2-21.3,18.7-32.3,27.5c-11.3,9-23.6,16.7-37.3,21.7
	c-11.5,4.2-23,5.2-34.5,0c-10.9-4.9-15-20.4-8-30.2c1.9-2.7,4.6-4.1,8-4.1c-0.8,5.7-0.4,8.5,1.4,11.6c2.4,4.1,6.6,6.3,10.9,5.7
	c3.9-0.5,7.2-3.5,8.3-7.7c0.9-3.4,0.5-6.7-1.1-9.8c-6.6-13-23.8-15.9-34.3-5.7c-14.5,14.1-9,42.3,10,50.8
	c12.6,5.6,25.5,5.7,38.6,1.8c15.2-4.5,28.5-12.7,41.2-21.9c19-13.7,36-29.7,52.4-46.2C163.2,70.5,168.8,65.2,186.1,61.4z"/>
</svg>
